# xmcd
#
# Track frame offsets:
#	150
#	16891
#	35063
#	52441
#	69616
#	86819
#	107080
#	124677
#	139525
#	155211
#	171259
#	183315
#	201916
#	216676
#	233108
#	246268
#	261291
#	275360
#	292668
#	308193
#	322466
#	336726
#
# Disc length: 4713
#
# Revision: 5
# Processed by: cddbd v1.5.1PL0 Copyright (c) Steve Scherf et al.
# Submitted via: ExactAudioCopy v0.95a5
# Normalized: r4:DSETVAR1,TDELIM( - )
#
DISCID=6a126716
DTITLE=Various Artist - Hit 2004 6 CD1
DYEAR=2004
DGENRE=Top 40
TTITLE0=Chipz - Captian Hook
TTITLE1=Niels van Gogh - One Way Out
TTITLE2=N and K vs Denis The Menace - Cruisin'
TTITLE3=Boris - When You Think Of Me
TTITLE4=Brithney Spears - Everytime
TTITLE5=Kanya West - Through The Wire
TTITLE6=The Calling - Our Lives
TTITLE7=La Macomba - Maria
TTITLE8=Mike Herat - Sexmachine
TTITLE9=O-Zone - Dragostea Din Tei
TTITLE10=Lenny Kravitz - Where are We Runnin'
TTITLE11=Zucchero vs Vanessa Cartlon - Everbody got to learn sometime
TTITLE12=Christiano Millian - Dip It Low
TTITLE13=Gigi D'Agostino - Gigi's Goodnight
TTITLE14=Enola Gay - Real club Sound
TTITLE15=Dr. kucho ft Jodie - Belmondo rulez 2.0
TTITLE16=No doubt - Bathwater
TTITLE17=Kadoc - Nihttrain 2004
TTITLE18=Sugar Lee Hooper - Baila Esta Cumbia
TTITLE19=Wesley - Ze Danst daar eenzaam in de nacht
TTITLE20=Wolter Kroes - Mag ik met je mee
TTITLE21=Def Rhymz - Habibti
EXTD=
EXTT0=
EXTT1=
EXTT2=
EXTT3=
EXTT4=
EXTT5=
EXTT6=
EXTT7=
EXTT8=
EXTT9=
EXTT10=
EXTT11=
EXTT12=
EXTT13=
EXTT14=
EXTT15=
EXTT16=
EXTT17=
EXTT18=
EXTT19=
EXTT20=
EXTT21=
PLAYORDER=
